<?xml version="1.0" standalone="no"?>
<!DOCTYPE svg PUBLIC "-//W3C//DTD SVG 20010904//EN"
 "http://www.w3.org/TR/2001/REC-SVG-20010904/DTD/svg10.dtd">
<svg version="1.0" xmlns="http://www.w3.org/2000/svg"
 width="400.000000pt" height="400.000000pt" viewBox="0 0 400.000000 400.000000"
 preserveAspectRatio="xMidYMid meet">

<g transform="translate(0.000000,400.000000) scale(0.100000,-0.100000)"
fill="#000000" stroke="none">
<path d="M675 3681 c-46 -6 -51 -9 -62 -41 -7 -19 -12 -63 -12 -97 -1 -61 -1
-61 -33 -68 -67 -15 -88 -32 -88 -74 0 -50 24 -71 81 -71 86 0 121 53 120 182
0 66 2 80 17 84 65 20 83 34 80 62 -3 30 -17 34 -103 23z"/>
<path d="M3401 3568 c-4 -13 -16 -62 -26 -110 -17 -85 -19 -88 -45 -88 -56 0
-66 -65 -14 -89 60 -27 113 18 134 115 22 103 14 94 73 87 28 -3 54 -7 55 -9
4 -3 -16 -140 -24 -167 -4 -14 -9 -15 -19 -7 -8 6 -26 10 -42 8 -23 -2 -28 -8
-31 -33 -3 -41 8 -55 51 -62 47 -7 94 12 112 47 12 23 34 133 52 257 6 37 1
39 -115 46 -40 3 -79 10 -85 16 -20 20 -67 13 -76 -11z"/>
<path d="M1740 3489 c-173 -21 -322 -61 -456 -124 -235 -108 -412 -306 -459
-511 -14 -57 -24 -77 -60 -114 -49 -51 -75 -100 -101 -185 -23 -78 -24 -232
-1 -293 24 -62 72 -127 112 -152 43 -27 43 -32 -15 -185 -65 -170 -77 -306
-40 -449 53 -210 222 -391 423 -456 41 -13 43 -20 23 -78 -8 -22 -17 -64 -21
-94 l-7 -55 -96 -7 c-54 -3 -149 -6 -212 -6 -153 0 -541 -37 -557 -53 -8 -7
-9 -17 -4 -26 8 -12 45 -11 253 8 149 13 319 21 440 21 l198 0 19 -38 c41 -81
149 -147 258 -158 132 -14 245 57 262 164 l6 37 216 3 216 2 7 -46 c15 -109
96 -167 235 -166 132 0 245 62 307 168 l26 44 166 2 c92 2 255 1 363 -1 170
-3 197 -1 202 12 13 33 -19 38 -261 44 l-239 6 -36 87 c-20 48 -37 89 -37 92
0 3 24 21 54 41 193 128 327 373 351 642 8 81 -8 283 -31 392 l-15 76 44 46
c77 80 112 156 127 274 17 138 -26 279 -112 366 -47 47 -82 68 -143 86 -32 10
-44 21 -68 65 -133 246 -404 422 -772 500 -115 25 -435 36 -565 19z m469 -44
c149 -22 297 -67 426 -129 173 -85 292 -186 383 -326 l42 -65 -42 -7 c-24 -4
-60 -15 -81 -24 -20 -10 -38 -15 -40 -13 -2 2 -20 30 -42 62 -93 138 -265 257
-473 327 -142 48 -256 64 -437 63 -489 -3 -841 -171 -934 -446 l-18 -52 -51
-6 c-29 -4 -59 -9 -67 -13 -23 -8 -18 29 14 111 111 282 429 473 876 526 85
11 348 6 444 -8z m12 -175 c54 -11 131 -32 171 -46 73 -27 188 -81 188 -89 0
-2 -37 -1 -83 2 -126 9 -200 -17 -247 -84 -14 -21 -18 -21 -113 -12 -63 7
-131 7 -195 1 l-97 -10 -31 34 c-44 47 -73 56 -210 61 -164 7 -206 -1 -439
-82 -31 -11 53 61 116 99 118 70 306 126 496 146 124 12 328 3 444 -20z m427
-213 c71 -15 105 -43 178 -141 l44 -59 -50 -53 c-46 -49 -110 -160 -110 -192
0 -16 -70 -48 -126 -57 -70 -11 -122 10 -185 74 -74 75 -114 179 -114 293 0
88 18 123 76 145 41 15 191 10 287 -10z m-906 -7 c37 -17 51 -67 37 -129 -26
-118 -142 -289 -234 -346 -63 -39 -146 -41 -215 -6 -112 59 -230 215 -230 304
0 74 84 129 280 182 70 19 321 15 362 -5z m413 -69 l60 -6 7 -75 c27 -267 198
-444 389 -401 25 6 52 13 61 16 12 5 16 -8 21 -72 12 -174 103 -311 238 -358
52 -19 151 -19 204 0 21 8 40 13 41 12 7 -8 34 -210 39 -292 12 -182 -29 -361
-117 -509 -51 -88 -164 -202 -241 -246 -69 -39 -69 -40 -13 -165 l36 -80 -66
-3 c-37 -2 -68 -2 -70 0 -1 2 0 28 4 58 10 73 6 90 -22 90 -21 0 -24 -7 -35
-71 -29 -177 -150 -292 -306 -291 -36 0 -80 5 -99 12 -91 30 -111 140 -33 184
18 11 44 30 59 44 47 43 50 137 5 130 -17 -2 -23 -12 -28 -43 -4 -22 -14 -44
-24 -50 -10 -5 -38 -25 -62 -42 l-43 -33 -232 0 c-225 0 -232 1 -255 22 -13
12 -45 34 -71 48 -41 22 -47 29 -50 62 -2 26 -9 39 -22 43 -29 9 -40 -2 -40
-41 0 -55 35 -104 85 -120 63 -20 84 -89 44 -145 -78 -109 -308 -75 -385 57
-33 56 -34 133 -5 228 31 101 31 101 -46 127 -216 71 -355 216 -409 429 -12
48 -15 92 -12 170 4 92 10 119 46 215 23 61 60 180 82 265 57 218 106 315 218
432 l45 47 46 -41 c25 -22 75 -55 111 -72 113 -54 211 -41 318 43 85 66 207
281 214 374 2 33 6 37 33 42 85 14 189 16 280 6z m975 -121 c24 -8 24 -8 -6
-9 -217 -7 -368 -273 -294 -515 32 -101 93 -172 176 -201 l39 -14 -36 -1 c-43
0 -101 22 -129 50 -11 11 -20 18 -20 15 0 -13 -59 64 -77 100 -105 209 -2 497
204 571 42 14 104 16 143 4z m46 -75 c129 -38 202 -210 160 -375 -42 -162
-116 -233 -246 -234 -48 0 -73 5 -95 20 -131 84 -172 281 -92 439 41 81 84
122 162 152 41 16 53 15 111 -2z m-2251 -51 c-50 -51 -96 -140 -116 -224 -20
-83 -17 -234 5 -298 25 -75 10 -86 -43 -31 -65 68 -90 169 -72 287 26 169 95
267 211 303 57 17 60 9 15 -37z m163 -16 l22 -42 -48 -50 c-80 -82 -167 -224
-197 -321 -13 -39 -13 -37 -14 55 -1 126 29 232 86 308 27 36 99 92 117 92 6
0 21 -19 34 -42z"/>
<path d="M1460 2133 c-62 -22 -45 -133 20 -133 47 0 78 73 48 112 -15 19 -47
28 -68 21z"/>
<path d="M1986 2118 c-34 -48 -8 -108 47 -108 56 0 80 68 40 113 -23 24 -68
22 -87 -5z"/>
<path d="M1666 1804 c-19 -18 -21 -55 -4 -72 17 -17 65 -15 72 4 12 31 6 63
-13 74 -27 14 -37 13 -55 -6z"/>
<path d="M1868 1809 c-21 -12 -24 -59 -6 -77 7 -7 21 -12 33 -12 44 0 63 59
28 86 -22 16 -32 17 -55 3z"/>
<path d="M1916 1515 c-25 -65 -205 -73 -229 -10 -7 17 -33 20 -43 4 -23 -37
70 -99 149 -99 81 0 167 52 167 100 0 24 -35 28 -44 5z"/>
</g>
</svg>
